<svg width="672" height="106" fill="none" xmlns="http://www.w3.org/2000/svg"><path fill-rule="evenodd" clip-rule="evenodd" d="M595.302 85.62a1.778 1.778 0 100-3.556c-.806 0-1.471.536-1.683 1.27l-.072.508c0 .982.773 1.778 1.755 1.778z" fill="#fff"/><path d="M594.344 103.535c0 .982-.795 1.78-1.777 1.78l-.097-.002c-.938-.051-1.702-.829-1.702-1.778 0-.982.817-1.778 1.799-1.778s1.777.796 1.777 1.778z" fill="#fff"/><path fill-rule="evenodd" clip-rule="evenodd" d="M626.893 105.313c22.113 0 40.154-12.185 40.154-33.998 0-16.096-9.928-21.813-19.556-26.777l-8.575-4.362c-.35-.176-.691-.346-1.023-.511l-.002-.001c-6.785-3.383-9.655-4.814-9.655-9.116 0-4.513 3.159-7.823 9.928-7.823 6.017 0 10.831 2.708 16.548 7.823 1.203.752 2.256.451 3.61-.752l12.486-12.787c1.504-1.655 1.504-3.16.451-4.363C663.888 3.771 653.508.011 640.721.011c-21.662 0-37.909 12.936-37.909 32.944 0 14.14 8.876 21.813 18.955 26.777l10.981 5.566.856.426c4.876 2.423 7.569 3.76 7.569 8.6 0 6.468-5.566 7.74-12.185 7.74h-33.686c-.806 0-1.471.536-1.683 1.27-.479 3.4-1.821 12.934-2.851 20.201 0 .949.764 1.727 1.702 1.778h34.423z" fill="#fff"/><path d="M527.394 105.313h54.908c1.353 0 2.557-1.053 2.707-2.407l2.558-18.353c.15-1.354-.602-2.407-1.956-2.407h-31.139l2.707-18.202h29.184c1.354 0 2.558-.903 2.708-2.257l2.557-18.503c.151-1.354-.752-2.407-2.106-2.407h-29.184l2.558-17.6h31.139c1.354 0 2.407-1.053 2.558-2.407l2.557-18.353c.15-1.354-.602-2.407-1.956-2.407h-55.058c-1.354 0-2.407 1.053-2.557 2.407l-14.141 100.489c-.15 1.354.602 2.407 1.956 2.407zM520.982 82.146h-29.334l11.283-79.73c.15-1.353-.753-2.406-2.106-2.406h-21.512c-1.354 0-2.407 1.053-2.558 2.407l-14.14 100.489c-.151 1.354.601 2.407 1.955 2.407h53.253c1.354 0 2.407-.903 2.558-2.257l2.557-18.653c.151-1.354-.602-2.257-1.956-2.257zM383.857 105.313h33.847c25.573 0 44.227-10.982 44.227-32.494 0-14.441-8.575-21.361-16.999-23.768 7.371-3.61 16.698-11.282 16.698-24.972 0-13.69-8.875-24.069-27.679-24.069h-35.352c-1.354 0-2.407 1.053-2.557 2.407l-14.141 100.489c-.15 1.354.602 2.407 1.956 2.407zm32.493-64.686l2.557-17.751h7.973c5.717 0 9.327 1.955 9.327 7.973 0 7.07-4.814 9.778-11.884 9.778h-7.973zm-5.716 41.82l2.858-21.512h10.53c6.77 0 11.583 2.557 11.583 9.628 0 8.123-6.468 11.884-14.742 11.884h-10.229zM377.103 102.755L356.795 1.815C356.494.612 355.29.01 354.087.01h-22.716c-1.203 0-2.557.602-3.159 1.805l-48.74 100.94c-.752 1.505-.15 2.558 1.505 2.558h22.564c1.204 0 2.407-.452 3.009-1.806l5.566-12.636h35.803l2.257 12.636c.3 1.354 1.053 1.806 2.256 1.806h22.565c1.655 0 2.407-1.053 2.106-2.558zm-54.607-35.05l15.344-34.299 6.017 34.298h-21.361zM199.218 105.313h34.449c35.803 0 61.527-25.123 61.527-59.421C295.194 19.867 279.549.01 248.41.01h-34.449c-1.354 0-2.407 1.053-2.558 2.407l-14.14 100.489c-.151 1.354.601 2.407 1.955 2.407zm27.078-23.167l8.424-58.97h10.38c15.645 0 23.618 8.876 23.618 25.424 0 19.255-10.982 33.546-32.193 33.546h-10.229zM200.126 29.946c0 17.15-8.725 30.387-23.618 36.405l17.601 36.254c.902 1.655 0 2.708-1.805 2.708h-22.866c-1.203 0-2.106-.452-2.557-1.505l-16.097-33.997h-3.309l-4.513 33.095c-.151 1.354-1.354 2.407-2.708 2.407h-21.512c-1.354 0-2.106-1.053-1.955-2.407l8.764-62.69c11.358 9.892 28.279 10.299 28.279 10.299 18.276 0 24.544-8.716 29.083-17.075.827-1.524 1.596-2.941 2.371-4.164 2.078-3.282-.867-4.468-2.599-4.65l-38.672-2.83c-5.615-3.46-8.213-4.281-15.087-5.155l1.776-12.62.225-1.604c.151-1.354 1.204-2.407 2.558-2.407h33.095c23.166 0 33.546 11.583 33.546 29.936zM1.975 105.313h33.847c23.742 0 41.52-9.466 43.944-28.035h-4.14c-16.41 0-26.804-9.756-29.949-14.634h10.12c.046-1.002-1.915-3.008-10.12-3.008-8.205 0-11.898-5.288-12.718-7.932H50.6s-.136-3.282-17.641-3.282c-9.306 0-12.49-5.79-13.403-8.753 7.932-.045 25.683-.109 33.232 0 9.222.134 22.623-.516 25.142-5.779 1.138-2.857 1.818-6.115 1.818-9.81 0-13.69-8.875-24.07-27.68-24.07H16.718c-1.354 0-2.407 1.053-2.557 2.407L.019 102.906c-.15 1.354.602 2.407 1.956 2.407zM104.2 105.313H82.688c-1.354 0-2.106-1.053-1.955-2.407l14.14-100.49C95.023 1.064 96.077.01 97.431.01h21.511c1.354 0 2.257 1.053 2.106 2.407l-.208 1.482-1.733 12.318c-5.181 1.072-9.328 3.517-12.018 5.664-1.235.986-2.164 1.91-2.743 2.608.773-.488 1.727-.966 2.79-1.405 3.443-1.424 8.025-2.45 11.311-2.177l-.068.479c-4.169.66-7.958 2.66-10.828 4.493-1.26.806-2.343 1.58-3.203 2.193-.627.448-1.135.811-1.507 1.04 1.176-.283 2.586-.67 4.094-1.082a754.914 754.914 0 011.82-.497c3.016-.815 6.199-1.618 8.587-1.864-2.902.667-5.372 2.445-7.114 3.886a55.005 55.005 0 00-1.159.989c-.29.252-.543.472-.757.646a69.096 69.096 0 012.401-.968c2.453-.937 4.922-1.713 6.695-1.936l-1.312 9.329-9.188 65.291c-.151 1.354-1.354 2.407-2.708 2.407z" fill="#fff"/><path d="M137.03 27.088a3.556 3.556 0 11-7.111 0 3.556 3.556 0 017.111 0z" fill="#fff"/><path fill-rule="evenodd" clip-rule="evenodd" d="M128.926 16.64c6.874.875 9.472 1.695 15.087 5.156v-.042c0-8.408-5.621-15.504-13.311-17.734l-1.776 12.62zM120.84 3.9c-7.914 2.082-13.751 9.287-13.751 17.855v.127c2.69-2.147 6.837-4.592 12.018-5.664l1.733-12.318zm-13.704 19.185c.068.954.208 1.887.415 2.795 2.87-1.833 6.659-3.832 10.828-4.493l.068-.479c-3.286-.273-7.868.753-11.311 2.177zm1.619 4.449l1.473 2.022c1.742-1.44 4.212-3.219 7.114-3.886-2.388.246-5.571 1.05-8.587 1.864zm1.958 2.69l5.383 7.392 1.312-9.33c-1.773.224-4.242 1-6.695 1.937zm26.317-3.135a3.556 3.556 0 11-7.111 0 3.556 3.556 0 017.111 0z" fill="#fff"/><path d="M125.551 40.217c11.358 9.892 28.279 10.298 28.279 10.298 18.276 0 24.544-8.716 29.083-17.075.827-1.524 1.596-2.941 2.371-4.164 2.078-3.282-.867-4.468-2.599-4.65l-38.672-2.83c-.022 10.177-8.279 18.42-18.462 18.42z" fill="#F29600"/></svg>