<svg width="32" height="32" fill="none" xmlns="http://www.w3.org/2000/svg">
  <style>
    path {
      fill: #11191E;
    }
    @media (prefers-color-scheme: dark) {
      path {
        fill: #ffffff;
      }
    }
  </style>
  <path d="M4.609 32h10.437c7.322 0 12.804-2.876 13.551-8.52H27.32c-5.06 0-8.265-2.964-9.235-4.446h3.12c.015-.305-.59-.915-3.12-.915-2.53 0-3.669-1.606-3.922-2.41h5.44s-.042-.997-5.44-.997c-2.87 0-3.851-1.76-4.133-2.66 2.446-.014 7.92-.033 10.248 0 2.844.04 6.976-.157 7.753-1.756.35-.869.56-1.858.56-2.982 0-4.16-2.736-7.314-8.535-7.314H9.155c-.418 0-.742.32-.789.731L4.006 31.27c-.047.411.185.731.603.731z"/>
</svg>