<?xml version="1.0" standalone="no"?>
<!DOCTYPE svg PUBLIC "-//W3C//DTD SVG 20010904//EN"
 "http://www.w3.org/TR/2001/REC-SVG-20010904/DTD/svg10.dtd">
<svg version="1.0" xmlns="http://www.w3.org/2000/svg"
 width="700.000000pt" height="700.000000pt" viewBox="0 0 700.000000 700.000000"
 preserveAspectRatio="xMidYMid meet">
<metadata>
Created by potrace 1.14, written by Peter Selinger 2001-2017
</metadata>
<g transform="translate(0.000000,700.000000) scale(0.100000,-0.100000)"
fill="#000000" stroke="none">
<path d="M1924 6981 c-49 -22 -79 -62 -94 -122 -18 -70 -950 -6669 -950 -6722
0 -60 23 -101 67 -122 30 -14 171 -16 1366 -12 1446 4 1434 3 1797 62 699 114
1252 374 1621 763 234 246 396 559 464 898 14 67 25 124 25 126 0 3 -109 8
-242 11 -406 11 -639 51 -953 165 -233 84 -543 263 -729 421 -139 117 -356
351 -356 384 0 4 151 7 335 7 369 0 364 -1 304 60 -82 82 -263 123 -590 135
-285 11 -443 51 -600 155 -98 64 -215 188 -262 278 -20 38 -37 75 -37 81 0 8
165 11 586 11 552 0 585 1 582 18 -5 25 -84 75 -160 100 -182 59 -434 89 -878
102 -214 6 -337 14 -385 25 -221 48 -388 148 -513 304 -47 60 -113 177 -127
227 l-6 21 378 8 c208 4 819 6 1358 4 1002 -3 1103 -1 1385 37 343 45 589 129
710 243 77 72 137 230 177 466 25 148 22 452 -5 606 -117 648 -560 1079 -1259
1224 -239 50 -200 49 -1628 52 -1295 3 -1341 2 -1381 -16z"/>
</g>
</svg>
